<?xml version="1.0" standalone="no"?>
<!DOCTYPE svg PUBLIC "-//W3C//DTD SVG 20010904//EN"
 "http://www.w3.org/TR/2001/REC-SVG-20010904/DTD/svg10.dtd">
<svg version="1.0" xmlns="http://www.w3.org/2000/svg"
     width="700.000000pt" height="700.000000pt" viewBox="0 0 700.000000 700.000000"
     preserveAspectRatio="xMidYMid meet">
    <g transform="translate(0.000000,700.000000) scale(0.100000,-0.100000)"
       fill="#000000" stroke="none">
        <path d="M3130 6984 c-1329 -142 -2447 -1014 -2919 -2277 -211 -564 -267
-1232 -156 -1845 59 -321 153 -599 310 -917 413 -837 1149 -1478 2030 -1770
556 -183 1166 -225 1743 -119 689 126 1325 460 1827 959 301 299 505 585 690
967 167 347 264 669 320 1069 25 177 31 607 11 797 -74 692 -328 1313 -756
1846 -531 660 -1282 1107 -2113 1255 -283 51 -704 66 -987 35z m735 -1833
c556 -321 1026 -595 1045 -610 74 -57 100 -162 61 -247 -14 -31 -187 -198
-737 -710 -396 -369 -725 -673 -731 -677 -10 -7 -13 56 -12 300 l0 308 405
375 c222 206 420 391 440 411 l35 36 -208 120 c-114 66 -412 238 -662 382
-249 144 -456 259 -460 256 -3 -4 -8 -874 -11 -1934 l-5 -1928 -222 196 -222
196 -1 1966 c0 2171 -5 2022 63 2087 53 51 85 63 152 59 59 -3 79 -14 1070
-586z"/>
</g>
</svg>
