<svg xmlns="http://www.w3.org/2000/svg" viewBox="0 0 24 24">
    <path
            d="M1.666 23.975a1.612 1.612 0 00-.23-.098c-.111-.037-.21-.086-.219-.11-.01-.025.08-.126.215-.246.402-.35.724-.69.898-.944.092-.135.256-.34.363-.46.604-.653 1.404-1.83 2.071-3.048.43-.785.458-.867.496-1.459.048-.754.013-1.735-.098-2.76a86.657 86.657 0 01-.098-.913c0-.04-.088-.006-.787.294-.449.193-.683.313-.765.387a2.51 2.51 0 01-.401.257c-.339.175-.427.181-.97.068-.513-.105-.734-.224-1.256-.669-.12-.1-.215-.199-.215-.217 0-.034-.215-.35-.518-.764L0 13.085l.054-.197c.044-.159.053-.279.04-.607-.012-.27-.005-.432.02-.469a.509.509 0 00.022-.217l-.01-.16.187-.083a.8.8 0 01.31-.08.295.295 0 00.205-.067c.228-.199.395-.248.57-.162.075.037.078.046.066.33-.013.338-.01.341.265.396.266.053.607.022 1.511-.138.838-.147 1.992-.321 2.122-.321.06 0 .11-.04.205-.166.07-.089.2-.227.294-.307l.168-.147.284.022c.506.033 1.097.11 1.287.168.18.055.199.055.54 0 .196-.03.503-.07.686-.089.835-.085.949-.104.984-.144.022-.027.053-.033.088-.012.038.018.08.012.133-.015.3-.169.344-.181.819-.187.265-.003.56-.025.698-.052.626-.126 2.491-.35 3.37-.408l.323-.022-.045-.086c-.063-.113-.06-.15.01-.144.028.003.145 0 .26 0l.205-.006.167-.224c.092-.12.187-.248.212-.282.041-.058.05-.055.23.117.105.101.222.248.263.331l.073.15.458-.015a124.26 124.26 0 012.706-.05c.105.004.351.025.547.05.196.024.42.046.5.046.17 0 .174.015-.136-.39-.215-.278-.5-.527-.699-.61a.863.863 0 01-.199-.116c-.05-.043-.3-.141-.582-.233-.278-.089-.53-.19-.581-.233a.352.352 0 00-.133-.074c-.025 0-.177-.027-.335-.064-.244-.055-.294-.077-.294-.123 0-.107.281-.061.926.154.272.088.37.11.37.08 0-.028-.168-.096-.459-.19-.271-.087-.458-.163-.458-.185 0-.021.025-.04.054-.04.079 0 .025-.033-.092-.058-.073-.015-.101-.037-.095-.073.007-.028-.006-.053-.028-.053-.02 0-.029-.021-.016-.046.01-.024.006-.046-.01-.046-.04 0-.145.126-.268.325-.063.105-.133.197-.155.203-.019.009-.136.003-.26-.01a5.103 5.103 0 00-.29-.024c-.05-.003-.073-.021-.073-.058 0-.052-.047-.061-.414-.095-.3-.028-.424-.03-.449-.006-.047.046-.085.043-.085-.01 0-.03-.05-.049-.165-.06a56.535 56.535 0 00-1.217-.096.775.775 0 01-.164-.028c-.048-.03-.104.01-.085.059.006.021-.007.049-.032.058-.07.028-.07.028-.082-.067-.01-.083-.013-.083-.269-.092-.168-.007-.262.003-.262.024 0 .015.025.03.057.03.028 0 .104.031.164.068.06.034.161.068.221.074.06.003.13.006.152.009.019.003.038.018.038.037 0 .018-.05.03-.117.027a5.175 5.175 0 00-.31 0l-.19.007.127.03a.442.442 0 01.2.117l.069.089-.18.033a2.885 2.885 0 00-.228.055c-.038.013-.041-.015-.022-.159l.019-.178-.117.022a.554.554 0 00-.19.076c-.06.043-.12.052-.3.046l-.228-.009-.028-.101c-.042-.156-.067-.163-.162-.043-.047.058-.107.107-.132.107-.035 0-.042.019-.029.062.013.04.006.061-.022.061-.022.003-.522.01-1.11.015-.588.006-1.144.028-1.233.046-.091.016-.205.037-.259.043-.05.003 0 .012.117.016.114 0 .231.012.26.021.139.052.003.074-.468.074-.525 0-.626.021-.51.104.048.034.03.043-.142.058a3.85 3.85 0 01-.344.022c-.12.003-.136.006-.086.036a.53.53 0 00.228.016c.17-.019.221.012.117.067a2.187 2.187 0 01-.405.043c-.344.018-.705.095-.78.169-.02.018-.117.036-.215.036-.095 0-.225.016-.285.031a4 4 0 01-.49.065c-.25.018-.424.049-.506.088-.117.056-.19.059-1.059.043-.904-.012-1.268-.036-1.533-.1a10.97 10.97 0 00-.427-.096c-.477-.104-1.334-.558-1.679-.889-.325-.31-.366-.41-.521-1.272-.073-.414-.08-.515-.067-1.012.016-.632.057-.816.288-1.29.478-.976 1.186-1.423 1.929-1.215.325.092.68.16.822.16.227 0 .682.067.714.11.066.073-.07.098-.648.11-.636.019-.784.043-1.11.196a.87.87 0 00-.474.494l-.05.117.142.122c.272.236.743.466 1.255.607.148.043.588.12.98.172.392.052.74.11.771.129.035.018.098.04.142.046l.392.049c.317.037.443.107.143.076-.136-.012-.155-.009-.095.016.05.024.133.024.288.003.22-.034.382-.022.382.024 0 .016-.022.028-.054.028-.028 0-.044.006-.034.015.009.013.151.03.312.05.822.082 2.798.272 2.84.272.028 0 .072.015.097.03.041.028.041.038-.01.074-.047.037-.037.043.112.074.139.025.17.021.202-.018.028-.04.117-.05.496-.05.446-.003.462 0 .493.065.029.061.02.067-.126.098a1.873 1.873 0 01-.212.037c-.183.015.841.116 1.189.12.145 0 .452.027.68.064.353.055.543.064 1.239.061.452-.003 1.008.01 1.233.03.284.025.464.025.584.004.105-.019.18-.022.193-.003.01.015.18.055.38.092.199.033.445.089.55.12.208.064.844.168 1.315.21.164.02.446.071.629.12.183.053.44.114.569.138.41.083 1.157.36 1.217.448.01.018.12.083.247.147.584.298.935.886 1.03 1.726.02.178.02.273-.003.3-.044.05-.047.05.205.108.253.058.51.193.484.255l-.035.082c-.028.062.184.28.32.325.07.025.17.074.224.108.092.055.104.08.104.199 0 .107.029.178.127.325.07.101.174.233.237.291.123.114.14.209.066.356-.025.049-.085.288-.13.533-.094.503-.113.537-.4.678-.18.089-.2.107-.374.365-.145.211-.12.294.13.463.167.113-.022.092-.297-.034-.143-.065-.25-.046-.43.073-.127.086-.184.099-.484.126l-.209.015-.401-.26c-.234-.153-.433-.26-.48-.26-.042 0-.272-.105-.51-.237a31.367 31.367 0 00-.543-.288c-.095-.046-1.723-.487-1.8-.487-.015 0 .052.19.146.423.279.683.456 1.3.547 1.922.127.868.329 1.98.383 2.143.167.478.452.92 1.261 1.935.762.96 1.67 2.149 1.739 2.284.107.202.316.98.316 1.174 0 .037-.041.074-.123.104-.13.05-.162.114-.162.328 0 .138-.139.331-.433.607-.218.206-.268.236-.404.258-.244.04-.68.03-.838-.015-.341-.099-.36-.11-.42-.233a1.8 1.8 0 00-.177-.261c-.064-.077-.18-.227-.263-.337-.199-.273-.401-.448-.651-.558-.209-.092-.547-.304-.895-.564a2.203 2.203 0 01-.629-.718 5.889 5.889 0 00-.31-.487 2.621 2.621 0 01-.44-.91c-.078-.283-.084-.354-.09-.994-.007-.38-.023-1.38-.039-2.223-.034-1.613-.038-1.659-.208-2.3-.083-.312-.57-1.848-.595-1.87a3.055 3.055 0 00-.41-.049 2.61 2.61 0 00-.775.019 3.02 3.02 0 01-.696.03c-.259-.015-.325-.012-.325.022 0 .14.117.631.24 1.008.149.454.642 2.726.771 3.542.08.5.086 1.3.016 1.962-.057.536-.12.806-.297 1.223-.114.273-.152.328-.335.494-.209.19-.269.288-.269.441 0 .104-.237.43-.37.506a.812.812 0 00-.199.22.84.84 0 01-.17.2c-.032.018-.12.086-.193.15-.18.16-.332.215-.636.236-.468.028-.5.01-1.075-.542-.316-.304-.6-.543-.762-.647-.202-.129-.271-.196-.306-.282-.06-.138-.427-.451-.677-.574-.107-.052-.199-.12-.218-.165a.903.903 0 00-.218-.209.992.992 0 01-.24-.239.665.665 0 00-.136-.162.74.74 0 01-.146-.178.657.657 0 00-.148-.172c-.063-.04-.073-.067-.06-.15a.233.233 0 00-.029-.166c-.044-.058-.04-.064.016-.064.038 0 .066-.01.066-.018 0-.01-.12-.16-.268-.335a4.323 4.323 0 01-.269-.334c0-.009.196.077.436.193.237.114.705.313 1.034.442.332.129.771.303.98.392.42.181.563.2.702.102.193-.135.202-.188.23-1.334a21.58 21.58 0 01.18-2.526c.074-.61.083-.834.083-1.662.003-.528-.006-.966-.016-.975-.025-.025-.78.046-1.002.095a5.539 5.539 0 00-.487.138c-.155.049-.455.122-.667.165-.208.04-.48.095-.604.12-.12.025-.5.074-.837.113l-.614.068-.13.116c-.069.062-.214.163-.325.227-.212.12-.237.154-.288.408-.107.512-.044 1.165.171 1.861.13.405.18.515.389.828.36.542.474.904.503 1.594.015.393.022.442.104.583.047.085.095.19.104.233.029.104-.082.52-.18.683-.041.07-.082.166-.095.212-.031.132-.284.356-.604.54-.22.128-.395.27-.784.643-.278.264-.61.604-.742.755-.424.49-1.218 1.269-1.31 1.287a.859.859 0 00-.22.12c-.206.153-.332.205-.528.224-.098.006-.231.033-.298.058-.167.061-.366.055-.477-.015l-.092-.062-.227.123c-.234.122-.297.14-.348.092zM21.159 9.749c-.045-.03-.098-.052-.12-.043-.057.022.044.098.132.098.057.003.057-.003-.012-.055zm-2.28-1.935c.041-.024.038-.03-.012-.03a.155.155 0 01-.101-.052c-.038-.053-.042-.05-.045.012 0 .055.032.092.095.098.01 0 .038-.012.063-.028zM13.6 7.661c.025-.015.038-.037.025-.046-.031-.03-.155.015-.136.05.026.033.05.033.111-.004zm3.961-.187c.155-.03.177-.046.187-.116.01-.077.019-.08.183-.08.095.003.265.012.38.024.198.019.16-.006-.07-.055-.05-.009-.089-.03-.089-.049 0-.021.07-.024.209-.009.158.015.205.012.19-.015-.013-.022-.051-.028-.083-.019a.617.617 0 01-.23-.03c-.168-.046-.177-.046-.307.018-.11.058-.164.064-.364.049-.148-.01-.243-.003-.265.018-.025.025-.06.016-.13-.033-.082-.059-.13-.068-.401-.065l-.31.003.531.102c.294.055.54.11.55.12.035.033-.123.018-.686-.06a8.971 8.971 0 00-.648-.073c-.05.003.022.022.168.043.388.058.701.132.844.2.158.07.13.067.341.027z"/>
    <path
            d="M14.548 8.001c0-.073.045-.125.108-.125.073 0 .11.021.174.1.038.05.031.053-.12.053-.089 0-.162-.012-.162-.028zM11.656 6.297c.095-.077.202-.12.389-.15.12-.019.13.009.031.095a.473.473 0 01-.363.131l-.152-.003zM20.356 5.742a.777.777 0 010-.224c.019-.227-.032-.365-.196-.533-.105-.105-.667-.38-1.04-.51-.841-.288-3.083-.511-6.159-.616-1.903-.064-2.753-.11-3.07-.168a1.336 1.336 0 00-.322-.025c-.057.01-.11 0-.123-.018-.013-.022-.107-.025-.272-.012-.18.012-.253.009-.253-.019 0-.018-.05-.034-.123-.034-.142 0-.2-.049-.098-.085.047-.016-.07-.046-.386-.092-.53-.08-.5-.08-.5-.022 0 .025-.012.046-.03.046-.017 0-.032-.015-.032-.034 0-.024-.016-.024-.048.003-.057.046-.142.019-.142-.046 0-.058-.08-.088-.364-.134-.12-.022-.253-.043-.29-.053-.042-.006-.073 0-.073.019 0 .015.038.03.088.03.136 0 .228.034.228.083 0 .037-.032.043-.165.025-.297-.04-.452-.09-.461-.144-.006-.037.01-.055.047-.055.048 0 .05-.007.01-.031a.256.256 0 00-.108-.03.201.201 0 01-.11-.04c-.029-.025-.335-.13-.683-.234-1.64-.496-2.254-.806-2.855-1.428-.196-.203-.449-.53-.449-.58 0-.049.098-.009.13.052.044.083.23.255.408.374.072.05.17.135.212.19.044.056.094.102.11.102s.114.064.218.14c.206.154.648.39.699.375.019-.006-.025-.052-.098-.098-.142-.099-.354-.34-.696-.798l-.224-.3V.98c-.003.148-.006.16-.044.11a2.04 2.04 0 01-.149-.346C2.867.533 2.804.414 2.703.3 2.548.122 2.49.03 2.516.002c.032-.027.244.184.3.3.03.062.099.166.156.23l.1.123v-.1c0-.133.039-.126.374.036.509.248.87.362 1.207.377.184.01.443.05.664.101.475.117.987.203 1.518.255.43.043.879.049.939.012.015-.01.237-.006.486.01.85.051 1.148.064 1.132.048-.016-.015-1.682-.14-1.868-.14-.076 0-.089-.01-.06-.04.028-.034.174-.04.74-.028.464.01.743.003.815-.018.108-.034.595-.077 1.451-.13.313-.018.516-.045.639-.088.158-.052.534-.126 1.116-.218.36-.058.452-.086.581-.178.111-.08.171-.098.3-.098a2.36 2.36 0 00.304-.03c.092-.019.478-.007 1.107.027.553.034 1.059.046 1.185.034.354-.034 1.49.018 2.017.092.373.052.557.095.813.193.183.067.423.153.537.19.471.156.816.377 1.195.763.322.332.386.463.654 1.322.206.656.212.687.237 1.134.038.666-.012.828-.354 1.12-.085.07-.151.153-.151.186 0 .169-.203.344-.294.255z"/>
</svg>
